<mxfile host="app.diagrams.net" modified="2020-11-26T15:31:51.549Z" agent="5.0 (Windows NT 10.0; Win64; x64) AppleWebKit/537.36 (KHTML, like Gecko) Chrome/87.0.4280.67 Safari/537.36" etag="vjpxHq0FA1QSkX4K7YpX" version="13.10.3" type="github" pages="3">
  <diagram id="fPRhGICZQwodaUMBDR7w" name="Minor vs Timing">
    <mxGraphModel dx="2062" dy="776" grid="1" gridSize="10" guides="1" tooltips="1" connect="1" arrows="1" fold="1" page="1" pageScale="1" pageWidth="850" pageHeight="1100" math="0" shadow="0">
      <root>
        <mxCell id="0" />
        <mxCell id="1" parent="0" />
        <mxCell id="NAVpdHUZ3kbYiY4eTLvR-1" value="Minor" style="html=1;fillColor=#10739E;strokeColor=none;shadow=0;fontSize=17;fontColor=#FFFFFF;align=center;fontStyle=1;rounded=0;" vertex="1" parent="1">
          <mxGeometry x="40" y="200" width="80" height="40" as="geometry" />
        </mxCell>
        <mxCell id="NAVpdHUZ3kbYiY4eTLvR-2" value="33 micro seconds" style="shape=mxgraph.infographic.ribbonSimple;notch1=0;notch2=10;notch=0;html=1;fillColor=#64BBE2;strokeColor=none;shadow=0;fontSize=17;fontColor=#FFFFFF;align=center;spacingLeft=10;fontStyle=1;" vertex="1" parent="1">
          <mxGeometry x="120" y="200" width="330" height="40" as="geometry" />
        </mxCell>
        <mxCell id="NAVpdHUZ3kbYiY4eTLvR-3" value="Timing" style="html=1;strokeColor=none;shadow=0;fontSize=17;fontColor=#FFFFFF;align=center;fontStyle=1;rounded=0;fillColor=#990000;" vertex="1" parent="1">
          <mxGeometry x="40" y="240" width="80" height="40" as="geometry" />
        </mxCell>
        <mxCell id="NAVpdHUZ3kbYiY4eTLvR-4" value="42 micro seconds" style="shape=mxgraph.infographic.ribbonSimple;notch1=0;notch2=10;notch=0;html=1;strokeColor=#6F0000;shadow=0;fontSize=17;align=center;spacingLeft=10;fontStyle=1;fontColor=#ffffff;fillColor=#CC0000;" vertex="1" parent="1">
          <mxGeometry x="120" y="240" width="420" height="40" as="geometry" />
        </mxCell>
      </root>
    </mxGraphModel>
  </diagram>
  <diagram id="355TNmGoOjCsxhXO8wea" name="minor vs timing cpu">
    <mxGraphModel dx="2062" dy="776" grid="1" gridSize="10" guides="1" tooltips="1" connect="1" arrows="1" fold="1" page="1" pageScale="1" pageWidth="850" pageHeight="1100" math="0" shadow="0">
      <root>
        <mxCell id="wA18ypQm1pT_3O4ZxgkX-0" />
        <mxCell id="wA18ypQm1pT_3O4ZxgkX-1" parent="wA18ypQm1pT_3O4ZxgkX-0" />
        <mxCell id="wA18ypQm1pT_3O4ZxgkX-6" value="Timing" style="html=1;strokeColor=none;shadow=0;fontSize=17;fontColor=#FFFFFF;align=center;fontStyle=1;rounded=0;fillColor=#990000;" vertex="1" parent="wA18ypQm1pT_3O4ZxgkX-1">
          <mxGeometry x="120" y="280" width="80" height="40" as="geometry" />
        </mxCell>
        <mxCell id="wA18ypQm1pT_3O4ZxgkX-12" value="Minor" style="html=1;fillColor=#10739E;strokeColor=none;shadow=0;fontSize=17;fontColor=#FFFFFF;align=center;fontStyle=1;rounded=0;" vertex="1" parent="wA18ypQm1pT_3O4ZxgkX-1">
          <mxGeometry x="120" y="240" width="80" height="40" as="geometry" />
        </mxCell>
        <mxCell id="wA18ypQm1pT_3O4ZxgkX-13" value="32 nano seconds" style="shape=mxgraph.infographic.ribbonSimple;notch1=0;notch2=10;notch=0;html=1;fillColor=#64BBE2;strokeColor=none;shadow=0;fontSize=17;fontColor=#FFFFFF;align=center;spacingLeft=10;fontStyle=1;" vertex="1" parent="wA18ypQm1pT_3O4ZxgkX-1">
          <mxGeometry x="200" y="240" width="390" height="40" as="geometry" />
        </mxCell>
        <mxCell id="wA18ypQm1pT_3O4ZxgkX-17" value="41 nano seconds" style="shape=mxgraph.infographic.ribbonSimple;notch1=0;notch2=10;notch=0;html=1;strokeColor=none;shadow=0;fontSize=17;fontColor=#FFFFFF;align=center;spacingLeft=10;fontStyle=1;fillColor=#CC0000;" vertex="1" parent="wA18ypQm1pT_3O4ZxgkX-1">
          <mxGeometry x="200" y="280" width="480" height="40" as="geometry" />
        </mxCell>
      </root>
    </mxGraphModel>
  </diagram>
  <diagram id="BcYVsein7VJhQ3lPKIat" name="Minor vs Timing ram">
    <mxGraphModel dx="2062" dy="776" grid="1" gridSize="10" guides="1" tooltips="1" connect="1" arrows="1" fold="1" page="1" pageScale="1" pageWidth="850" pageHeight="1100" math="0" shadow="0">
      <root>
        <mxCell id="u1qP-xU7ed_pwZwdS9Y7-0" />
        <mxCell id="u1qP-xU7ed_pwZwdS9Y7-1" parent="u1qP-xU7ed_pwZwdS9Y7-0" />
        <mxCell id="u1qP-xU7ed_pwZwdS9Y7-2" value="Minor" style="html=1;fillColor=#10739E;strokeColor=none;shadow=0;fontSize=17;fontColor=#FFFFFF;align=center;fontStyle=1;rounded=0;" vertex="1" parent="u1qP-xU7ed_pwZwdS9Y7-1">
          <mxGeometry x="120" y="240" width="80" height="40" as="geometry" />
        </mxCell>
        <mxCell id="u1qP-xU7ed_pwZwdS9Y7-3" value="32 micro seconds" style="shape=mxgraph.infographic.ribbonSimple;notch1=0;notch2=10;notch=0;html=1;fillColor=#64BBE2;strokeColor=none;shadow=0;fontSize=17;fontColor=#FFFFFF;align=center;spacingLeft=10;fontStyle=1;" vertex="1" parent="u1qP-xU7ed_pwZwdS9Y7-1">
          <mxGeometry x="200" y="240" width="320" height="40" as="geometry" />
        </mxCell>
        <mxCell id="u1qP-xU7ed_pwZwdS9Y7-4" value="Timing" style="html=1;strokeColor=none;shadow=0;fontSize=17;fontColor=#FFFFFF;align=center;fontStyle=1;rounded=0;fillColor=#990000;" vertex="1" parent="u1qP-xU7ed_pwZwdS9Y7-1">
          <mxGeometry x="120" y="280" width="80" height="40" as="geometry" />
        </mxCell>
        <mxCell id="u1qP-xU7ed_pwZwdS9Y7-5" value="41 micro seconds" style="shape=mxgraph.infographic.ribbonSimple;notch1=0;notch2=10;notch=0;html=1;strokeColor=none;shadow=0;fontSize=17;fontColor=#FFFFFF;align=center;spacingLeft=10;fontStyle=1;fillColor=#CC0000;" vertex="1" parent="u1qP-xU7ed_pwZwdS9Y7-1">
          <mxGeometry x="200" y="280" width="410" height="40" as="geometry" />
        </mxCell>
      </root>
    </mxGraphModel>
  </diagram>
</mxfile>
